# xmcd CD database file
#
# Track frame offsets:
#	150
#	20535
#	37005
#	52962
#	69935
#	90387
#	102780
#	116052
#	138447
#	155892
#	172445
#	191682
#
# Disc length: 2832 seconds
#
# Revision: 1
# Processed by: cddbd v1.5.2PL0 Copyright (c) Steve Scherf et al.
# Submitted via: CDex 1.51
#
DISCID=a70b0e0c
DTITLE=Independents' Finest Vol. 2 - Independents' Finest Vol. 2
DYEAR=2001
DGENRE=Hip-Hop
TTITLE0=Sandman feat Wild Child of the Lootpack - I'm Telling You (Remix)
TTITLE1=DJ Eli and We Be Foolish - Properly Done
TTITLE2=Mykill Meirs feat Planet Asia - Everyday Ritual
TTITLE3=Masta Ace and Guru - Conflict
TTITLE4=Erule - Mind Wars (Remix)
TTITLE5=QNC feat Lord Jamar - That Real Live
TTITLE6=Nextmen and Grap Luva - Thinking Man's Session
TTITLE7=Grand Agent and Lord Finesse - Know The Legend
TTITLE8=Akbar - 5th Element
TTITLE9=Illacoin - This, That and The 3rd
TTITLE10=The Kreators feat Guru, Ed O.G., Big Shug, Krumbsnatcha and Akrobatik - Home
TTITLE11=Brand Nubian - Rockin' It
EXTD=YEAR: 2001
EXTT0=
EXTT1=
EXTT2=
EXTT3=
EXTT4=
EXTT5=
EXTT6=
EXTT7=
EXTT8=
EXTT9=
EXTT10=
EXTT11=
PLAYORDER=
